:SAMPLES-PER-SECOND 24
:FULLY-SPECIFIED
:DEGREES
345
root  -6.52496 38.3376 20.837 15.5148 75.0349 19.3561
RightUpLeg  -5.96998 -31.9362 -25.6838
RightLeg  29.5624 2.51919 1.34585
RightFoot  -4.08544 -1.03163 15.4852
RightToes  -1.74623e-010 0 -2.59999e-017
Spine  3.97507 1.77412 10.7612
Spine1  18.2216 6.44362 -12.4287
HEad  -38.6317 66.6443 -51.7158
LeftShoulder1  2.6682 -3.89473 -30.0368
LeftArm  17.5516 -0.531472 -41.6654
LeftForeArm  14.6264 -46.9428 -10.9546
LeftHand  -0.2372 4.38343 27.0645
RightShoulder  3.69945 6.13811 32.4865
RightArm  1.08641 -22.4406 32.0033
RightForeArm  159.513 66.6069 156.19
RightHand  0.02542 -6.08864 -8.33041
LeftUpLeg  -4.62979 14.5559 14.1333
LeftLeg  21.5301 11.3708 5.39067
LeftFoot  0.998405 0.0970541 -0.85307
LeftToes  -6.27559e-011 -2.10356e-011 8.24929e-012
346
root  -6.26313 39.5447 20.9561 27.8676 79.8306 31.6444
RightUpLeg  1.83758 -31.0767 -27.4782
RightLeg  19.3402 -0.341499 -0.203658
RightFoot  2.52751 -2.3715 19.3814
RightToes  -1.74623e-010 0 -2.59999e-017
Spine  3.20252 2.01082 9.02684
Spine1  17.1352 5.98627 -10.5472
HEad  -32.2088 66.913 -45.2093
LeftShoulder1  2.5745 -3.81697 -29.1251
LeftArm  16.5929 5.043 -41.7106
LeftForeArm  10.1695 -42.0357 -9.43335
LeftHand  -0.201955 4.51141 26.3662
RightShoulder  3.62324 6.05805 32.0098
RightArm  2.7023 -22.7307 33.6313
RightForeArm  161.864 64.1321 158.861
RightHand  0.04425 -6.49083 -7.40692
LeftUpLeg  -3.44118 15.8627 12.5489
LeftLeg  17.1324 -0.495035 0.0935142
LeftFoot  5.79705 0.469463 -3.34971
LeftToes  -6.27559e-011 -2.10356e-011 8.24929e-012
347
root  -6.13489 40.1701 20.8237 46.0821 83.1886 49.7497
RightUpLeg  5.10474 -23.0586 -27.1693
RightLeg  15.401 -4.60446 -0.0149865
RightFoot  6.12615 -2.8996 18.9919
RightToes  -1.74623e-010 0 -2.59999e-017
Spine  3.43151 1.92572 8.89053
Spine1  15.7096 5.71086 -9.89494
HEad  -28.9547 66.1116 -41.5934
LeftShoulder1  2.36332 -3.58989 -27.2205
LeftArm  18.873 8.7115 -41.6503
LeftForeArm  3.54946 -37.144 -8.28102
LeftHand  -0.152523 4.69885 25.0947
RightShoulder  3.49003 5.95289 31.0128
RightArm  4.5497 -21.9906 35.8514
RightForeArm  162.19 61.562 160.989
RightHand  -0.00152579 -5.66114 -8.82434
LeftUpLeg  -3.59257 15.5539 11.3153
LeftLeg  18.9617 -3.5881 -1.04681
LeftFoot  10.2233 1.09769 -6.0893
LeftToes  -6.27559e-011 -2.10356e-011 8.24929e-012
348
root  -6.15464 40.1508 20.7539 67.7977 84.6423 71.1322
RightUpLeg  4.78168 -17.0246 -25.356
RightLeg  17.0611 -1.91832 -0.629305
RightFoot  4.3801 -2.11038 15.3515
RightToes  -1.74623e-010 0 -2.59999e-017
Spine  3.383 2.23983 8.47644
Spine1  15.7449 5.95861 -10.1215
HEad  -29.6041 64.3181 -41.3073
LeftShoulder1  2.09 -3.31692 -24.4382
LeftArm  22.0798 10.3786 -41.8393
LeftForeArm  -2.26486 -32.9629 -7.42787
LeftHand  -0.0555658 5.13186 22.0232
RightShoulder  3.23204 5.73502 29.0533
RightArm  5.95911 -18.9845 38.2705
RightForeArm  158.292 59.8251 161.869
RightHand  -0.128204 -4.16872 -10.8182
LeftUpLeg  -3.63715 17.7514 11.0487
LeftLeg  21.5868 -0.452295 0.131642
LeftFoot  10.8607 2.0196 -10.681
LeftToes  -6.27559e-011 -2.10356e-011 8.24929e-012
349
root  -6.24122 39.48 20.8111 97.4961 84.6571 100.508
RightUpLeg  3.69884 -11.1086 -24.3521
RightLeg  21.7271 -1.26595 -0.800343
RightFoot  -2.16141 -1.25567 15.5546
RightToes  -1.74623e-010 0 -2.59999e-017
Spine  4.04727 2.69589 5.87407
Spine1  15.0098 5.67583 -9.21059
HEad  -30.1764 62.3821 -40.3735
LeftShoulder1  1.93537 -3.30438 -22.1061
LeftArm  23.0591 11.9666 -41.6695
LeftForeArm  -5.01639 -29.7571 -6.73978
LeftHand  -0.0342562 5.22721 18.4036
RightShoulder  3.01863 5.52379 27.4642
RightArm  6.43037 -14.8346 39.169
RightForeArm  152.351 59.0283 161.878
RightHand  -0.258045 -3.00071 -12.0838
LeftUpLeg  -4.52371 19.9115 11.0045
LeftLeg  24.6165 -1.06622 -0.204533
LeftFoot  4.47608 1.90763 -13.8848
LeftToes  -6.27559e-011 -2.10356e-011 8.24929e-012
350
root  -6.44354 38.2848 20.8803 133.646 82.9561 136.391
RightUpLeg  2.96352 -10.9195 -24.2771
RightLeg  27.5702 -1.24757 -0.941003
RightFoot  -10.5986 -0.182582 20.2637
RightToes  -1.74623e-010 0 -2.59999e-017
Spine  5.71755 2.53995 3.08414
Spine1  13.4811 4.36141 -6.49093
HEad  -31.7701 59.8119 -40.2477
LeftShoulder1  1.93971 -3.41645 -21.6776
LeftArm  23.5628 12.414 -39.4485
LeftForeArm  -7.29153 -28.0029 -6.42298
LeftHand  -0.048268 5.12943 16.936
RightShoulder  2.95304 5.4058 27.1604
RightArm  4.78656 -9.29496 37.9713
RightForeArm  147.608 59.364 161.246
RightHand  -0.310398 -2.33598 -11.5846
LeftUpLeg  -9.26914 18.8966 11.1846
LeftLeg  31.7257 -3.33025 -1.86106
LeftFoot  -3.76623 0.947281 -13.8349
LeftToes  -6.27559e-011 -2.10356e-011 8.24929e-012
351
root  -6.69875 36.9504 20.9746 155.817 79.7944 158.142
RightUpLeg  2.00106 -15.2975 -24.6493
RightLeg  33.7877 -0.324418 -0.480171
RightFoot  -18.0117 1.11157 20.9698
RightToes  -1.74623e-010 0 -2.59999e-017
Spine  6.15628 2.18651 2.03416
Spine1  14.8735 3.46203 -4.69534
HEad  -37.1086 55.4425 -42.6007
LeftShoulder1  1.97956 -3.35478 -22.5621
LeftArm  25.8063 8.31497 -35.656
LeftForeArm  -11.1364 -25.602 -6.04222
LeftHand  -0.0128723 5.38518 15.9067
RightShoulder  3.01195 5.37405 27.9698
RightArm  0.0888424 -2.64164 36.2813
RightForeArm  143.626 62.1651 158.731
RightHand  -0.15831 -3.65529 -9.70113
LeftUpLeg  -15.9575 17.396 12.0305
LeftLeg  40.735 -4.85025 -4.0701
LeftFoot  -9.35616 0.291692 -13.5606
LeftToes  -6.27559e-011 -2.10356e-011 8.24929e-012
